<svg width="16" height="16" viewBox="0 0 16 16" fill="none" xmlns="http://www.w3.org/2000/svg">
<g clip-path="url(#clip0_1179_7740)">
<path d="M13.3307 5.3333H11.3307V4.13997C11.3307 2.39997 10.0574 0.846638 8.32406 0.679971C6.3374 0.493304 4.66406 2.0533 4.66406 3.99997V5.3333H2.66406V14.6666H13.3307V5.3333ZM7.9974 11.3333C7.26406 11.3333 6.66406 10.7333 6.66406 9.99997C6.66406 9.26664 7.26406 8.66664 7.9974 8.66664C8.73073 8.66664 9.33073 9.26664 9.33073 9.99997C9.33073 10.7333 8.73073 11.3333 7.9974 11.3333ZM5.9974 5.3333V3.99997C5.9974 2.8933 6.89073 1.99997 7.9974 1.99997C9.10406 1.99997 9.9974 2.8933 9.9974 3.99997V5.3333H5.9974Z" fill="#687898"/>
</g>
<defs>
<clipPath id="clip0_1179_7740">
<rect width="16" height="16" fill="white"/>
</clipPath>
</defs>
</svg>
