<svg width="20" height="20" viewBox="0 0 20 20" fill="none" xmlns="http://www.w3.org/2000/svg">
<path d="M11.6641 6.66675H12.4974C12.7184 6.66675 12.9304 6.57895 13.0867 6.42267C13.2429 6.26639 13.3307 6.05443 13.3307 5.83341C13.3307 5.6124 13.2429 5.40044 13.0867 5.24416C12.9304 5.08788 12.7184 5.00008 12.4974 5.00008H11.6641C11.443 5.00008 11.2311 5.08788 11.0748 5.24416C10.9185 5.40044 10.8307 5.6124 10.8307 5.83341C10.8307 6.05443 10.9185 6.26639 11.0748 6.42267C11.2311 6.57895 11.443 6.66675 11.6641 6.66675ZM11.6641 10.0001H12.4974C12.7184 10.0001 12.9304 9.91228 13.0867 9.756C13.2429 9.59972 13.3307 9.38776 13.3307 9.16675C13.3307 8.94573 13.2429 8.73377 13.0867 8.57749C12.9304 8.42121 12.7184 8.33341 12.4974 8.33341H11.6641C11.443 8.33341 11.2311 8.42121 11.0748 8.57749C10.9185 8.73377 10.8307 8.94573 10.8307 9.16675C10.8307 9.38776 10.9185 9.59972 11.0748 9.756C11.2311 9.91228 11.443 10.0001 11.6641 10.0001ZM7.4974 6.66675H8.33073C8.55174 6.66675 8.7637 6.57895 8.91998 6.42267C9.07626 6.26639 9.16406 6.05443 9.16406 5.83341C9.16406 5.6124 9.07626 5.40044 8.91998 5.24416C8.7637 5.08788 8.55174 5.00008 8.33073 5.00008H7.4974C7.27638 5.00008 7.06442 5.08788 6.90814 5.24416C6.75186 5.40044 6.66406 5.6124 6.66406 5.83341C6.66406 6.05443 6.75186 6.26639 6.90814 6.42267C7.06442 6.57895 7.27638 6.66675 7.4974 6.66675ZM7.4974 10.0001H8.33073C8.55174 10.0001 8.7637 9.91228 8.91998 9.756C9.07626 9.59972 9.16406 9.38776 9.16406 9.16675C9.16406 8.94573 9.07626 8.73377 8.91998 8.57749C8.7637 8.42121 8.55174 8.33341 8.33073 8.33341H7.4974C7.27638 8.33341 7.06442 8.42121 6.90814 8.57749C6.75186 8.73377 6.66406 8.94573 6.66406 9.16675C6.66406 9.38776 6.75186 9.59972 6.90814 9.756C7.06442 9.91228 7.27638 10.0001 7.4974 10.0001ZM17.4974 16.6667H16.6641V2.50008C16.6641 2.27907 16.5763 2.06711 16.42 1.91083C16.2637 1.75455 16.0517 1.66675 15.8307 1.66675H4.16406C3.94305 1.66675 3.73109 1.75455 3.57481 1.91083C3.41853 2.06711 3.33073 2.27907 3.33073 2.50008V16.6667H2.4974C2.27638 16.6667 2.06442 16.7545 1.90814 16.9108C1.75186 17.0671 1.66406 17.2791 1.66406 17.5001C1.66406 17.7211 1.75186 17.9331 1.90814 18.0893C2.06442 18.2456 2.27638 18.3334 2.4974 18.3334H17.4974C17.7184 18.3334 17.9304 18.2456 18.0867 18.0893C18.2429 17.9331 18.3307 17.7211 18.3307 17.5001C18.3307 17.2791 18.2429 17.0671 18.0867 16.9108C17.9304 16.7545 17.7184 16.6667 17.4974 16.6667ZM10.8307 16.6667H9.16406V13.3334H10.8307V16.6667ZM14.9974 16.6667H12.4974V12.5001C12.4974 12.2791 12.4096 12.0671 12.2533 11.9108C12.097 11.7545 11.8851 11.6667 11.6641 11.6667H8.33073C8.10972 11.6667 7.89775 11.7545 7.74147 11.9108C7.58519 12.0671 7.4974 12.2791 7.4974 12.5001V16.6667H4.9974V3.33341H14.9974V16.6667Z" fill="#052D50"/>
</svg>
