<svg width="20" height="20" viewBox="0 0 20 20" fill="none" xmlns="http://www.w3.org/2000/svg">
<path d="M7.25573 6.42508L9.16406 4.50841V12.5001C9.16406 12.7211 9.25186 12.9331 9.40814 13.0893C9.56442 13.2456 9.77638 13.3334 9.9974 13.3334C10.2184 13.3334 10.4304 13.2456 10.5867 13.0893C10.7429 12.9331 10.8307 12.7211 10.8307 12.5001V4.50841L12.7391 6.42508C12.8165 6.50318 12.9087 6.56518 13.0102 6.60749C13.1118 6.64979 13.2207 6.67158 13.3307 6.67158C13.4407 6.67158 13.5497 6.64979 13.6512 6.60749C13.7528 6.56518 13.8449 6.50318 13.9224 6.42508C14.0005 6.34761 14.0625 6.25544 14.1048 6.15389C14.1471 6.05234 14.1689 5.94342 14.1689 5.83341C14.1689 5.7234 14.1471 5.61448 14.1048 5.51293C14.0625 5.41138 14.0005 5.31921 13.9224 5.24174L10.5891 1.90841C10.5098 1.83254 10.4164 1.77307 10.3141 1.73341C10.1112 1.65006 9.88361 1.65006 9.68073 1.73341C9.57844 1.77307 9.48498 1.83254 9.40573 1.90841L6.0724 5.24174C5.9947 5.31944 5.93306 5.41168 5.89101 5.5132C5.84896 5.61472 5.82732 5.72353 5.82732 5.83341C5.82732 5.94329 5.84896 6.0521 5.89101 6.15362C5.93306 6.25514 5.9947 6.34738 6.0724 6.42508C6.15009 6.50278 6.24234 6.56441 6.34385 6.60646C6.44537 6.64851 6.55418 6.67015 6.66406 6.67015C6.77394 6.67015 6.88275 6.64851 6.98427 6.60646C7.08579 6.56441 7.17803 6.50278 7.25573 6.42508ZM17.4974 11.6667C17.2764 11.6667 17.0644 11.7545 16.9081 11.9108C16.7519 12.0671 16.6641 12.2791 16.6641 12.5001V15.8334C16.6641 16.0544 16.5763 16.2664 16.42 16.4227C16.2637 16.5789 16.0517 16.6667 15.8307 16.6667H4.16406C3.94305 16.6667 3.73109 16.5789 3.57481 16.4227C3.41853 16.2664 3.33073 16.0544 3.33073 15.8334V12.5001C3.33073 12.2791 3.24293 12.0671 3.08665 11.9108C2.93037 11.7545 2.71841 11.6667 2.4974 11.6667C2.27638 11.6667 2.06442 11.7545 1.90814 11.9108C1.75186 12.0671 1.66406 12.2791 1.66406 12.5001V15.8334C1.66406 16.4965 1.92745 17.1323 2.3963 17.6012C2.86514 18.07 3.50102 18.3334 4.16406 18.3334H15.8307C16.4938 18.3334 17.1297 18.07 17.5985 17.6012C18.0673 17.1323 18.3307 16.4965 18.3307 15.8334V12.5001C18.3307 12.2791 18.2429 12.0671 18.0867 11.9108C17.9304 11.7545 17.7184 11.6667 17.4974 11.6667Z" fill="white"/>
</svg>
