<svg width="24" height="24" viewBox="0 0 24 24" fill="none" xmlns="http://www.w3.org/2000/svg" aria-hidden="true">
  <path d="M16.5 19.5V18C16.5 16.3431 15.1569 15 13.5 15H7.5C5.84315 15 4.5 16.3431 4.5 18V19.5" stroke="#16A35F" stroke-width="1.8" stroke-linecap="round" stroke-linejoin="round"/>
  <path d="M10.5 12C12.1569 12 13.5 10.6569 13.5 9C13.5 7.34315 12.1569 6 10.5 6C8.84315 6 7.5 7.34315 7.5 9C7.5 10.6569 8.84315 12 10.5 12Z" stroke="#16A35F" stroke-width="1.8" stroke-linecap="round" stroke-linejoin="round"/>
  <path d="M20 19.5V18C19.999 16.6168 19.0592 15.4112 17.7188 15.075" stroke="#16A35F" stroke-width="1.8" stroke-linecap="round" stroke-linejoin="round"/>
  <path d="M15.2188 6.075C16.5631 6.40869 17.5064 7.61626 17.5064 9.0025C17.5064 10.3887 16.5631 11.5963 15.2188 11.93" stroke="#16A35F" stroke-width="1.8" stroke-linecap="round" stroke-linejoin="round"/>
</svg>
