<svg width="24" height="24" viewBox="0 0 24 24" fill="none" xmlns="http://www.w3.org/2000/svg" aria-hidden="true">
  <path d="M9 6V5C9 3.89543 9.89543 3 11 3H13C14.1046 3 15 3.89543 15 5V6" stroke="#0089F6" stroke-width="1.8" stroke-linecap="round" stroke-linejoin="round"/>
  <path d="M4 8.5C4 7.39543 4.89543 6.5 6 6.5H18C19.1046 6.5 20 7.39543 20 8.5V17.5C20 18.6046 19.1046 19.5 18 19.5H6C4.89543 19.5 4 18.6046 4 17.5V8.5Z" stroke="#0089F6" stroke-width="1.8" stroke-linejoin="round"/>
  <path d="M4 11.5H20" stroke="#0089F6" stroke-width="1.8" stroke-linecap="round"/>
  <path d="M10 11.5V12.5C10 13.0523 10.4477 13.5 11 13.5H13C13.5523 13.5 14 13.0523 14 12.5V11.5" stroke="#0089F6" stroke-width="1.8" stroke-linecap="round" stroke-linejoin="round"/>
</svg>
