<svg
  xmlns="http://www.w3.org/2000/svg"
  viewBox="0 0 203 24"
  role="img"
  aria-label="BYGGEXP"
>
  <path fill="#FFFFFF" d="M 0 0 L 20.5 0 L 26 3.5 L 26 7.5 L 23.5 11 L 22 11.5 Q 25.6 12.4 27 15.5 L 27 19.5 L 23.5 23 L 21.5 24 L 0 24 L 0 0 Z M 8 6 L 8 9 L 9 9 L 18 9 L 18 7 L 18 6 L 8 6 Z M 8 15 L 8 18 L 18 18 L 19 17 Q 19 15 19 15 L 8 15 Z" />
  <path fill="#FFFFFF" d="M 26 0 L 34.5 0 Q 35.5 -0.4 35 1.5 L 40.5 9 L 44 4.5 L 44 3.5 L 47.5 0 L 54.5 0 L 55 0.5 L 44 15.5 L 44 24 L 36 24 L 36 14.5 L 28 4.5 L 28 3.5 L 26 1.5 L 26 0 Z" />
  <path fill="#FFFFFF" d="M 63.5 0 L 74.5 0 L 75.5 1 L 77.5 1 L 79.5 2 L 83 5.5 L 84 7.5 L 83.5 8 L 75.5 8 L 72.5 6 L 65.5 6 L 62 8.5 Q 62.5 11 61 11.5 L 62 12.5 L 62 16 Q 64.5 15.5 65.5 18 L 71.5 18 L 74 16.5 L 69 16 L 69 11 L 84 11 L 84 24 L 76 24 Q 77.1 21.3 74.5 22 L 71.5 24 L 62.5 24 L 58.5 22 L 54 17.5 Q 54.5 15 53 14.5 L 53 9.5 L 55 5.5 L 58.5 2 L 60.5 1 L 62.5 1 L 63.5 0 Z" />
  <path fill="#FFFFFF" d="M 95.5 0 L 107.5 0 L 111.5 2 L 113.5 4 L 115 4 Q 114.3 6.6 116 7.5 L 115.5 8 L 107.5 8 L 104.5 6 L 97.5 6 L 94 9.5 L 94 14.5 L 97.5 18 L 104.5 18 L 107 16.5 L 102 16 L 102 11 L 116 11 L 116 24 L 109 24 L 108.5 21 L 106.5 23 Q 104 22.5 103.5 24 L 94.5 24 L 87 18.5 L 86 16.5 L 86 8.5 L 89.5 3 L 95.5 0 Z" />
  <path fill="#FFFFFF" d="M 119 0 L 143.5 0 L 144 0.5 L 144 6 L 127.5 6 L 127 6.5 L 127 9 L 142 9 L 142 15 L 127.5 15 L 127 15.5 L 127 18 L 143.5 18 Q 144.5 18 144 22.5 L 142.5 24 L 119 24 L 119 0 Z" />
  <path fill="#FFFFFF" d="M 146 0 L 154.5 0 L 159 4.5 L 160.5 7 L 161 5.5 L 166.5 0 L 174.5 0 L 175 0.5 L 165 11.5 L 175 22.5 L 175 24 L 165.5 24 Q 164.5 24.4 165 22.5 L 159.5 17 L 155 21.5 L 153.5 24 L 145.5 24 L 145 23.5 L 146 21.5 L 155 12.5 L 155 11.5 L 146 1.5 L 146 0 Z" />
  <path fill="#FFFFFF" d="M 177 0 L 196.5 0 L 202 3.5 L 203 5.5 L 203 11.5 L 200.5 15 L 196.5 17 L 185 17 L 185 24 L 177 24 L 177 0 Z M 185 6 L 185 11 L 194 11 Q 195 11 195 8 L 194 6 L 185 6 Z" />
</svg>
